<?xml version="1.0" encoding="utf-8"?>
<!-- Generator: Adobe Illustrator 26.0.3, SVG Export Plug-In . SVG Version: 6.00 Build 0)  -->
<svg version="1.1" id="Layer_1" xmlns="http://www.w3.org/2000/svg" xmlns:xlink="http://www.w3.org/1999/xlink" x="0px" y="0px"
	 viewBox="0 0 500 500" style="enable-background:new 0 0 500 500;" xml:space="preserve">
<style type="text/css">
	.st0{opacity:0.9;}
	.st1{fill:#D60B52;}
	.st2{fill:#29235C;}
</style>
<g class="st0">
	<path d="M244.34,227.43c-0.92,0.95-2.05,1.63-3.38,2.05c1.12,0.23,2.02,0.79,2.71,1.68c0.69,0.89,1.03,1.94,1.03,3.15
		c0,0.33-0.04,0.69-0.11,1.08c-0.33,1.98-1.32,3.58-2.99,4.8s-3.75,1.82-6.25,1.82h-10.53l4.34-24.43h10.08
		c2.22,0,3.93,0.47,5.13,1.4c1.2,0.93,1.8,2.18,1.8,3.74c0,0.37-0.04,0.76-0.11,1.16C245.84,225.31,245.26,226.49,244.34,227.43z
		 M239.81,234.1c0-0.84-0.3-1.5-0.89-1.98c-0.59-0.48-1.42-0.72-2.47-0.72h-4.83l-1.15,6.72h4.93c1.19,0,2.17-0.29,2.94-0.88
		c0.77-0.58,1.24-1.4,1.4-2.45C239.78,234.48,239.81,234.24,239.81,234.1z M241,223.99c0-0.82-0.27-1.45-0.8-1.89
		c-0.54-0.44-1.32-0.67-2.34-0.67h-4.45l-1.12,6.3h4.48c1.14,0,2.09-0.27,2.84-0.82c0.75-0.55,1.2-1.31,1.37-2.29
		C240.98,224.48,241,224.27,241,223.99z"/>
	<path d="M251.92,222.62l2.59,13.54l7.52-13.54h5.22l-17.04,28.56h-5.22l5.88-9.66l-4.45-18.9H251.92z"/>
	<path d="M266.88,227.03c1.04-1.52,2.31-2.68,3.81-3.5c1.5-0.82,3.09-1.23,4.74-1.23c1.26,0,2.42,0.27,3.47,0.82
		c1.05,0.55,1.83,1.28,2.34,2.19l1.64-9.21h4.94l-4.58,25.9h-4.94l0.53-2.87c-0.77,0.96-1.76,1.73-2.96,2.31
		c-1.2,0.58-2.53,0.88-3.97,0.88c-1.42,0-2.69-0.32-3.8-0.96c-1.11-0.64-1.97-1.55-2.59-2.73c-0.62-1.18-0.93-2.55-0.93-4.11
		c0-0.72,0.07-1.48,0.21-2.27C265.15,230.29,265.84,228.55,266.88,227.03z M280.16,230.99c0-1.38-0.4-2.45-1.21-3.22
		c-0.8-0.77-1.81-1.15-3.03-1.15c-0.91,0-1.79,0.22-2.64,0.67c-0.85,0.44-1.59,1.09-2.22,1.94c-0.63,0.85-1.05,1.86-1.26,3.03
		c-0.07,0.44-0.1,0.86-0.1,1.26c0,1.4,0.4,2.5,1.19,3.31c0.79,0.8,1.8,1.21,3.01,1.21c0.91,0,1.8-0.23,2.66-0.68s1.6-1.11,2.22-1.98
		s1.03-1.88,1.24-3.04C280.12,231.71,280.16,231.27,280.16,230.99z"/>
	<path d="M303.79,224.35c1.45,1.37,2.17,3.2,2.17,5.51c0,0.75-0.06,1.41-0.17,2c-0.14,0.7-0.29,1.31-0.46,1.82h-14.18
		c-0.02,0.16-0.03,0.4-0.03,0.7c0,1.21,0.36,2.16,1.07,2.85c0.71,0.69,1.65,1.03,2.82,1.03c0.98,0,1.83-0.22,2.54-0.65
		c0.71-0.43,1.29-1,1.73-1.7h5.29c-0.86,1.87-2.2,3.4-4.01,4.6c-1.81,1.2-3.86,1.8-6.14,1.8c-2.47,0-4.46-0.7-5.95-2.1
		c-1.49-1.4-2.24-3.3-2.24-5.71c0-0.7,0.07-1.43,0.21-2.2c0.35-2.01,1.07-3.77,2.15-5.29c1.08-1.52,2.43-2.68,4.04-3.5
		c1.61-0.82,3.37-1.23,5.29-1.23C300.38,222.31,302.34,222.99,303.79,224.35z M300.99,229.9c0-1.12-0.36-2-1.08-2.62
		c-0.72-0.63-1.67-0.95-2.83-0.95c-1.24,0-2.34,0.39-3.32,1.17c-0.98,0.78-1.67,1.85-2.07,3.2h9.24
		C300.96,230.33,300.99,230.07,300.99,229.9z"/>
	<path d="M316.95,232.28l4.72,9.73h-5.53l-2.9-5.98l-4.62,5.98h-5.25l8.05-9.73l-4.69-9.66h5.53l2.91,5.99l4.62-5.99h5.25
		L316.95,232.28z"/>
</g>
<g>
	<path class="st1" d="M208.84,230.16c-0.18-0.15-0.39-0.27-0.58-0.4l-4.87,3.07c0.92,0.64,1.41,1.65,1.41,3.07
		c0,1.93-0.75,3.39-2.25,4.39c-1.5,1-3.61,1.5-6.34,1.5h-8.72l-7.86,5.09h16.18c3.06,0,5.75-0.41,8.06-1.22
		c2.31-0.81,4.13-2.04,5.44-3.67c1.31-1.63,1.97-3.66,1.97-6.09C211.29,233.4,210.47,231.49,208.84,230.16z"/>
</g>
<path class="st2" d="M192.7,219.71l-0.19,1.09l8.45,2.46l-16.73,9.49l4.53-4.26l2.19-11.85l17.31-0.01
	c-0.31-1.34-1.06-2.42-2.25-3.23c-1.61-1.09-3.94-1.64-6.98-1.64h-13.52l-5.6,28h6.47l0.01-0.05l31-20H192.7z"/>
</svg>
