<?xml version="1.0" encoding="utf-8"?>
<!-- Generator: Adobe Illustrator 26.0.3, SVG Export Plug-In . SVG Version: 6.00 Build 0)  -->
<svg version="1.1" id="Layer_1" xmlns="http://www.w3.org/2000/svg" xmlns:xlink="http://www.w3.org/1999/xlink" x="0px" y="0px"
	 viewBox="0 0 120 40" style="enable-background:new 0 0 120 40;" xml:space="preserve">
<style type="text/css">
	.st0{opacity:0.9;}
	.st1{fill:#D60B52;}
	.st2{fill:#29235C;}
</style>
<g>
	<g class="st0">
		<path d="M51.9,16.67c-0.76,0.78-1.69,1.34-2.79,1.69c0.92,0.19,1.67,0.65,2.24,1.39c0.57,0.73,0.85,1.6,0.85,2.6
			c0,0.27-0.03,0.57-0.09,0.9c-0.27,1.64-1.09,2.96-2.47,3.96c-1.38,1-3.09,1.5-5.16,1.5H35.8l3.58-20.16h8.32
			c1.83,0,3.24,0.39,4.23,1.16c0.99,0.77,1.49,1.8,1.49,3.09c0,0.31-0.03,0.63-0.09,0.95C53.14,14.91,52.66,15.89,51.9,16.67z
			 M48.16,22.17c0-0.69-0.25-1.24-0.74-1.63c-0.49-0.39-1.17-0.59-2.04-0.59H41.4l-0.95,5.55h4.07c0.98,0,1.79-0.24,2.43-0.72
			c0.64-0.48,1.02-1.16,1.15-2.02C48.14,22.48,48.16,22.29,48.16,22.17z M49.14,13.82c0-0.67-0.22-1.19-0.66-1.56
			c-0.44-0.37-1.09-0.55-1.93-0.55h-3.67l-0.92,5.2h3.7c0.94,0,1.72-0.23,2.34-0.68c0.62-0.45,0.99-1.08,1.13-1.89
			C49.13,14.23,49.14,14.05,49.14,13.82z"/>
		<path d="M58.16,12.7l2.14,11.18L66.5,12.7h4.3L56.74,36.27h-4.3l4.85-7.97l-3.67-15.6H58.16z"/>
		<path d="M70.51,16.33c0.86-1.25,1.91-2.21,3.15-2.89c1.24-0.67,2.55-1.01,3.91-1.01c1.04,0,1.99,0.23,2.86,0.68
			c0.87,0.45,1.51,1.05,1.94,1.81l1.36-7.6h4.07L84.01,28.7h-4.07l0.43-2.37c-0.64,0.79-1.45,1.43-2.44,1.91
			c-0.99,0.48-2.08,0.72-3.28,0.72c-1.18,0-2.22-0.26-3.13-0.79c-0.91-0.53-1.63-1.28-2.14-2.25c-0.51-0.97-0.77-2.1-0.77-3.39
			c0-0.6,0.06-1.22,0.17-1.88C69.08,19.02,69.65,17.59,70.51,16.33z M81.47,19.6c0-1.14-0.33-2.02-1-2.66
			c-0.66-0.64-1.5-0.95-2.5-0.95c-0.75,0-1.48,0.18-2.18,0.55c-0.7,0.37-1.31,0.9-1.83,1.6c-0.52,0.7-0.87,1.54-1.04,2.5
			c-0.06,0.37-0.09,0.71-0.09,1.04c0,1.16,0.33,2.07,0.98,2.73c0.65,0.66,1.48,1,2.48,1c0.75,0,1.48-0.19,2.2-0.56
			c0.71-0.38,1.32-0.92,1.83-1.63c0.51-0.71,0.85-1.55,1.03-2.51C81.43,20.2,81.47,19.83,81.47,19.6z"/>
		<path d="M100.97,14.12c1.19,1.13,1.79,2.64,1.79,4.55c0,0.62-0.05,1.17-0.14,1.65c-0.12,0.58-0.24,1.08-0.38,1.5h-11.7
			c-0.02,0.14-0.03,0.33-0.03,0.58c0,1,0.29,1.79,0.88,2.35c0.59,0.57,1.36,0.85,2.33,0.85c0.81,0,1.51-0.18,2.09-0.53
			c0.59-0.36,1.06-0.82,1.43-1.4h4.36c-0.71,1.54-1.82,2.81-3.31,3.8c-1.49,0.99-3.18,1.49-5.07,1.49c-2.04,0-3.68-0.58-4.91-1.73
			c-1.23-1.16-1.85-2.72-1.85-4.71c0-0.58,0.06-1.18,0.17-1.82c0.29-1.66,0.88-3.11,1.78-4.36c0.9-1.25,2.01-2.21,3.34-2.89
			c1.33-0.67,2.78-1.01,4.36-1.01C98.15,12.44,99.77,13,100.97,14.12z M98.65,18.7c0-0.92-0.3-1.65-0.9-2.17
			c-0.6-0.52-1.38-0.78-2.34-0.78c-1.02,0-1.94,0.32-2.74,0.97c-0.81,0.65-1.38,1.53-1.7,2.64h7.63
			C98.63,19.06,98.65,18.84,98.65,18.7z"/>
		<path d="M111.83,20.67l3.9,8.03h-4.56l-2.4-4.94l-3.81,4.94h-4.33l6.64-8.03l-3.87-7.97h4.56l2.4,4.94l3.81-4.94h4.33
			L111.83,20.67z"/>
	</g>
	<g>
		<path class="st1" d="M25.6,18.92c-0.15-0.12-0.32-0.22-0.48-0.33l-4.02,2.53c0.76,0.53,1.16,1.36,1.16,2.54
			c0,1.59-0.62,2.8-1.85,3.63c-1.24,0.82-2.98,1.24-5.23,1.24H7.99l-6.49,4.2h13.35c2.53,0,4.75-0.34,6.65-1.01
			c1.91-0.67,3.41-1.68,4.49-3.03c1.08-1.35,1.63-3.02,1.63-5.03C27.62,21.59,26.95,20.01,25.6,18.92z"/>
	</g>
	<path class="st2" d="M12.29,10.29l-0.16,0.9l6.97,2.03L5.29,21.06l3.74-3.52l1.81-9.78l14.29-0.01c-0.26-1.11-0.87-2-1.86-2.66
		c-1.33-0.9-3.25-1.35-5.76-1.35H6.35L1.73,26.84h5.34l0.01-0.04l25.58-16.51H12.29z"/>
</g>
</svg>
