<?xml version="1.0" encoding="utf-8"?>
<!-- Generator: Adobe Illustrator 26.0.3, SVG Export Plug-In . SVG Version: 6.00 Build 0)  -->
<svg version="1.1" id="Layer_1" xmlns="http://www.w3.org/2000/svg" xmlns:xlink="http://www.w3.org/1999/xlink" x="0px" y="0px"
	 viewBox="0 0 120 40" style="enable-background:new 0 0 120 40;" xml:space="preserve">
<style type="text/css">
	.st0{fill:#D60B51;}
	.st1{fill:#29235C;}
	.st2{fill:#1D1D1B;}
</style>
<g>
	<g>
		<g>
			<path class="st0" d="M20.9,19.4c-0.1-0.1-0.3-0.2-0.4-0.3l-3.3,2.1c0.6,0.4,1,1.1,1,2.1c0,1.3-0.5,2.3-1.5,3c-1,0.7-2.5,1-4.3,1
				H6.4L1,30.8h11c2.1,0,3.9-0.3,5.5-0.8c1.6-0.6,2.8-1.4,3.7-2.5c0.9-1.1,1.3-2.5,1.3-4.2C22.6,21.6,22,20.3,20.9,19.4z"/>
		</g>
		<path class="st1" d="M9.9,12.2L9.8,13l5.8,1.7L4.1,21.1l3.1-2.9l1.5-8.1l11.8,0c-0.2-0.9-0.7-1.7-1.5-2.2
			c-1.1-0.7-2.7-1.1-4.8-1.1H5L1.2,25.9h4.4l0,0l21.1-13.6H9.9z"/>
	</g>
	<g>
		<path class="st2" d="M43.6,17.4c-0.6,0.6-1.4,1.1-2.2,1.4c0.7,0.2,1.3,0.5,1.8,1.1c0.5,0.6,0.7,1.3,0.7,2.1c0,0.2,0,0.5-0.1,0.7
			c-0.2,1.3-0.9,2.4-2,3.2c-1.1,0.8-2.5,1.2-4.2,1.2h-7l2.9-16.2h6.7c1.5,0,2.6,0.3,3.4,0.9c0.8,0.6,1.2,1.5,1.2,2.5
			c0,0.2,0,0.5-0.1,0.8C44.6,15.9,44.3,16.7,43.6,17.4z M40.6,21.8c0-0.6-0.2-1-0.6-1.3c-0.4-0.3-0.9-0.5-1.6-0.5h-3.2l-0.8,4.5h3.3
			c0.8,0,1.4-0.2,2-0.6c0.5-0.4,0.8-0.9,0.9-1.6C40.6,22,40.6,21.9,40.6,21.8z M41.4,15.1c0-0.5-0.2-1-0.5-1.3
			c-0.4-0.3-0.9-0.4-1.6-0.4h-3l-0.7,4.2h3c0.8,0,1.4-0.2,1.9-0.5c0.5-0.4,0.8-0.9,0.9-1.5C41.4,15.4,41.4,15.3,41.4,15.1z"/>
		<path class="st2" d="M49.4,14.2l1.7,9l5-9h3.5l-11.3,19h-3.5l3.9-6.4l-3-12.6H49.4z"/>
		<path class="st2" d="M60.8,26.8C60,26.5,59.4,26,59,25.5c-0.4-0.6-0.7-1.2-0.7-1.9c0-0.1,0-0.3,0-0.5h3.2c0,0.5,0.1,1,0.5,1.3
			c0.4,0.3,0.9,0.5,1.6,0.5c0.6,0,1.1-0.1,1.5-0.3c0.4-0.2,0.6-0.6,0.6-1c0-0.4-0.2-0.7-0.6-0.9c-0.4-0.2-1-0.5-1.8-0.8
			c-0.8-0.3-1.5-0.6-2-0.9c-0.5-0.3-1-0.7-1.4-1.2c-0.4-0.5-0.6-1.1-0.6-1.9c0-0.8,0.2-1.4,0.7-2c0.4-0.6,1.1-1,1.8-1.4
			c0.8-0.3,1.7-0.5,2.7-0.5c1,0,1.8,0.2,2.6,0.5c0.7,0.3,1.3,0.8,1.7,1.4c0.4,0.6,0.6,1.2,0.6,2c0,0.2,0,0.3,0,0.4h-3
			c0-0.5-0.1-1-0.5-1.3c-0.4-0.3-0.9-0.5-1.6-0.5c-0.6,0-1,0.1-1.4,0.4c-0.4,0.2-0.5,0.6-0.5,1c0,0.4,0.2,0.7,0.6,1
			c0.4,0.3,1,0.5,1.9,0.8c0.8,0.3,1.5,0.6,2,0.9c0.5,0.3,0.9,0.6,1.3,1.1c0.4,0.5,0.6,1.1,0.6,1.8c0,0.8-0.2,1.5-0.7,2.1
			c-0.5,0.6-1.1,1-2,1.3c-0.8,0.3-1.8,0.5-2.8,0.5C62.4,27.3,61.6,27.1,60.8,26.8z"/>
		<path class="st2" d="M90.5,14.2l-6,12.9h-3.5l-0.7-9l-4,9h-3.5l-1.5-12.9h3.3L75,24l4.2-9.8h3.4l0.7,9.8l4-9.8H90.5z"/>
		<path class="st2" d="M90.9,17.1c0.7-1,1.5-1.8,2.5-2.3c1-0.5,2-0.8,3.1-0.8c1,0,1.8,0.2,2.4,0.6c0.7,0.4,1.1,0.9,1.5,1.5l0.3-1.8
			h3.3l-2.3,12.9h-3.3l0.3-1.9c-0.5,0.6-1.2,1.1-2,1.5c-0.8,0.4-1.7,0.6-2.7,0.6c-0.9,0-1.8-0.2-2.5-0.6c-0.7-0.4-1.3-1-1.7-1.8
			c-0.4-0.8-0.6-1.7-0.6-2.7c0-0.5,0-1,0.1-1.5C89.8,19.3,90.2,18.1,90.9,17.1z M99.8,19.7c0-0.9-0.3-1.6-0.8-2.1s-1.2-0.8-2-0.8
			c-0.6,0-1.2,0.1-1.8,0.4c-0.6,0.3-1.1,0.7-1.5,1.3c-0.4,0.6-0.7,1.2-0.8,2c0,0.3-0.1,0.6-0.1,0.8c0,0.9,0.3,1.7,0.8,2.2
			c0.5,0.5,1.2,0.8,2,0.8c0.6,0,1.2-0.2,1.8-0.5c0.6-0.3,1.1-0.7,1.5-1.3c0.4-0.6,0.7-1.2,0.8-2C99.7,20.2,99.8,19.9,99.8,19.7z"/>
		<path class="st2" d="M111.5,14.5c0.8-0.4,1.7-0.6,2.6-0.6c1,0,1.8,0.2,2.5,0.6c0.7,0.4,1.3,1,1.7,1.8c0.4,0.8,0.6,1.7,0.6,2.7
			c0,0.5,0,1-0.1,1.5c-0.2,1.3-0.7,2.5-1.4,3.5c-0.7,1-1.5,1.8-2.5,2.4c-1,0.6-2,0.8-3.1,0.8c-0.9,0-1.7-0.2-2.4-0.6
			c-0.7-0.4-1.2-0.9-1.5-1.5l-1.4,8h-3.3l3.3-19h3.3l-0.3,1.9C110.1,15.4,110.7,14.9,111.5,14.5z M115.6,19.7c0-0.9-0.3-1.6-0.8-2.1
			c-0.5-0.5-1.2-0.8-2-0.8c-0.6,0-1.2,0.2-1.7,0.5c-0.6,0.3-1.1,0.7-1.5,1.3c-0.4,0.6-0.7,1.2-0.8,2c-0.1,0.4-0.1,0.7-0.1,0.9
			c0,0.9,0.3,1.6,0.8,2.1c0.5,0.5,1.2,0.8,2,0.8c0.6,0,1.2-0.2,1.8-0.5c0.6-0.3,1.1-0.8,1.5-1.3c0.4-0.6,0.7-1.3,0.8-2
			C115.6,20.3,115.6,20,115.6,19.7z"/>
	</g>
</g>
</svg>
